<svg xmlns="http://www.w3.org/2000/svg" version="1.1" xmlns:xlink="http://www.w3.org/1999/xlink" viewBox="0 0 200 200"><rect width="200" height="200" fill="url('#gradient')"></rect><defs><linearGradient id="gradient" gradientTransform="rotate(63 0.5 0.5)"><stop offset="0%" stop-color="#3c93b9"></stop><stop offset="100%" stop-color="#10beb5"></stop></linearGradient></defs><g><g fill="#e8f3ed" transform="matrix(3.573260145069594,0,0,3.573260145069594,7.165256376267422,125.40525497501211)" stroke="#99e1de" stroke-width="0.7"><path d="M5.75 0L1.07 0L1.07-14.22L5.65-14.22Q7.54-14.22 9.04-13.36Q10.55-12.51 11.39-10.95Q12.24-9.39 12.25-7.46L12.25-7.46L12.25-6.81Q12.25-4.85 11.42-3.31Q10.60-1.76 9.10-0.88Q7.60-0.01 5.75 0L5.75 0ZM5.65-11.57L4.50-11.57L4.50-2.64L5.69-2.64Q7.17-2.64 7.96-3.69Q8.75-4.74 8.75-6.81L8.75-6.81L8.75-7.42Q8.75-9.48 7.96-10.53Q7.17-11.57 5.65-11.57L5.65-11.57ZM18.68 0L14.00 0L14.00-14.22L18.58-14.22Q20.47-14.22 21.97-13.36Q23.48-12.51 24.32-10.95Q25.17-9.39 25.18-7.46L25.18-7.46L25.18-6.81Q25.18-4.85 24.35-3.31Q23.53-1.76 22.03-0.88Q20.53-0.01 18.68 0L18.68 0ZM18.58-11.57L17.43-11.57L17.43-2.64L18.62-2.64Q20.10-2.64 20.89-3.69Q21.68-4.74 21.68-6.81L21.68-6.81L21.68-7.42Q21.68-9.48 20.89-10.53Q20.10-11.57 18.58-11.57L18.58-11.57ZM34.79 0L31.77-5.29L30.36-3.75L30.36 0L26.93 0L26.93-14.22L30.36-14.22L30.36-7.95L31.55-9.76L34.62-14.22L38.86-14.22L34.05-7.93L38.86 0L34.79 0ZM50.89-14.22L50.89-11.57L46.62-11.57L46.62 0L43.19 0L43.19-11.57L39.00-11.57L39.00-14.22L50.89-14.22Z"></path></g></g></svg>